<?xml version="1.0" standalone="no"?>
<svg xmlns="http://www.w3.org/2000/svg" viewBox="0 0 100.72 52.68" width="100.72" height="52.68"><rect fill="#0019ff" width="100.72" height="52.68" x="0" y="0"></rect><g fill="white" color="white" transform="translate(12 12) scale(0.6828572)"><svg width="42.0" height="42.0" x="0.0" y="0.0" viewBox="0 0 42 42"><path fill="currentColor" fill-rule="nonzero" d="M21 41.41L41.41.59H.59L21 41.41zm0-7.61l-11.5-23h15.4l-1.7 3.4H15l6 12 9.4-18.8H7.8L6.1 4h29.8L21 33.8z"></path></svg></g><path fill="white" fill-rule="nonzero" d="M7.84 28.68L7.84 28.68Q5.60 28.68 3.82 27.62Q2.04 26.56 1.02 24.70Q0 22.84 0 20.52L0 20.52L0 18.68Q0 18.52 0.16 18.52L0.16 18.52L4.68 18.52Q4.84 18.52 4.84 18.72L4.84 18.72L4.84 20.52Q4.84 22 5.68 22.92Q6.52 23.84 7.84 23.84L7.84 23.84Q9.04 23.84 9.92 22.84Q10.80 21.84 10.80 20.52L10.80 20.52L10.80 0.64Q10.80 0.48 10.96 0.48L10.96 0.48L15.44 0.48Q15.60 0.48 15.60 0.68L15.60 0.68L15.64 20.52Q15.64 22.72 14.58 24.58Q13.52 26.44 11.76 27.56Q10 28.68 7.84 28.68ZM25.20 28.68L25.20 28.68Q23.04 28.68 21.28 27.60Q19.52 26.52 18.46 24.70Q17.40 22.88 17.40 20.64L17.40 20.64L17.40 7.96Q17.40 5.80 18.46 3.98Q19.52 2.16 21.30 1.08Q23.08 0 25.20 0L25.20 0Q27.40 0 29.18 1.06Q30.96 2.12 32 3.92Q33.04 5.72 33.04 7.96L33.04 7.96L33.04 9.80Q33.04 9.96 32.84 9.96L32.84 9.96L28.36 9.96Q28.20 9.96 28.20 9.80L28.20 9.80L28.20 8.28Q28.20 6.76 27.34 5.76Q26.48 4.76 25.20 4.76L25.20 4.76Q24.04 4.76 23.14 5.72Q22.24 6.68 22.24 7.96L22.24 7.96L22.24 20.64Q22.24 21.96 23.12 22.90Q24 23.84 25.20 23.84L25.20 23.84Q26.48 23.84 27.34 22.92Q28.20 22 28.20 20.64L28.20 20.64L28.20 18.68L25.40 18.68Q25.20 18.68 25.20 18.48L25.20 18.48L25.20 14Q25.20 13.80 25.40 13.80L25.40 13.80L32.88 13.80Q33.04 13.80 33.04 14L33.04 14L33.04 20.64Q33.04 22.88 31.98 24.70Q30.92 26.52 29.16 27.60Q27.40 28.68 25.20 28.68Z" transform="translate(55.68 12) scale(1)"></path></svg>